<svg xmlns="http://www.w3.org/2000/svg">

    <symbol id="bars">
        <path d="M10.5 7.5v15M7.5 20.5H10M13.5 11.5H11M19.5 6.5v15M16.5 9.5H19M22.5 16.5H20"></path>
    </symbol>

    <symbol id="candles">
        <path d="M17 11v6h3v-6h-3zm-.5-1h4a.5.5 0 0 1 .5.5v7a.5.5 0 0 1-.5.5h-4a.5.5 0 0 1-.5-.5v-7a.5.5 0 0 1 .5-.5z"></path>
        <path d="M18 7h1v3.5h-1zm0 10.5h1V21h-1z"></path>
        <path d="M9 8v12h3V8H9zm-.5-1h4a.5.5 0 0 1 .5.5v13a.5.5 0 0 1-.5.5h-4a.5.5 0 0 1-.5-.5v-13a.5.5 0 0 1 .5-.5z"></path>
        <path d="M10 4h1v3.5h-1zm0 16.5h1V24h-1z"></path>
    </symbol>

    <symbol id="area">
        <path d="M12.5 17.207L18.707 11h2l3.647-3.646-.708-.708L20.293 10h-2L12.5 15.793l-3-3-4.854 4.853.708.708L9.5 14.207z"></path>
        <path d="M9 16h1v1H9zm1 1h1v1h-1zm-1 1h1v1H9zm2 0h1v1h-1zm-1 1h1v1h-1zm-1 1h1v1H9zm2 0h1v1h-1zm-3-3h1v1H8zm-1 1h1v1H7zm-1 1h1v1H6zm2 0h1v1H8zm-1 1h1v1H7zm-2 0h1v1H5zm17-9h1v1h-1zm1-1h1v1h-1zm0 2h1v1h-1zm-1 1h1v1h-1zm-1 1h1v1h-1zm2 0h1v1h-1zm-1 1h1v1h-1zm-1 1h1v1h-1zm2 0h1v1h-1zm-1 1h1v1h-1zm-1 1h1v1h-1zm2 0h1v1h-1zm-1 1h1v1h-1zm-1 1h1v1h-1zm2 0h1v1h-1zm-5-7h1v1h-1zm2 0h1v1h-1zm1-1h1v1h-1zm-2 2h1v1h-1zm-1 1h1v1h-1zm2 0h1v1h-1zm-1 1h1v1h-1zm-1 1h1v1h-1zm2 0h1v1h-1zm-1 1h1v1h-1zm-1 1h1v1h-1zm2 0h1v1h-1zm-1 1h1v1h-1zm-2-6h1v1h-1zm-1 1h1v1h-1zm-1 1h1v1h-1zm2 0h1v1h-1zm-1 1h1v1h-1zm-1 1h1v1h-1zm2 0h1v1h-1zm-1 1h1v1h-1zm-1 1h1v1h-1zm2 0h1v1h-1zm-3-3h1v1h-1zm-1 1h1v1h-1zm-1 1h1v1h-1zm2 0h1v1h-1zm-1 1h1v1h-1z"></path>
    </symbol>

    <symbol id="line">
        <path d="M11.982 16.689L17.192 12h3.033l4.149-4.668-.748-.664L19.776 11h-2.968l-4.79 4.311L9 12.293l-4.354 4.353.708.708L9 13.707z"></path>
    </symbol>

</svg>